<svg xmlns="http://www.w3.org/2000/svg" viewBox="0 0 512 512">
  <defs>
    <linearGradient id="bg" x1="0%" y1="0%" x2="0%" y2="100%">
      <stop offset="0%" style="stop-color:#007AFF;stop-opacity:1" />
      <stop offset="100%" style="stop-color:#0051D5;stop-opacity:1" />
    </linearGradient>
  </defs>
  <rect width="512" height="512" rx="128" fill="url(#bg)"/>
  <!-- Plus symbol for "compare" -->
  <path d="M256 128c-14 0-26 12-26 26v76h-76c-14 0-26 12-26 26s12 26 26 26h76v76c0 14 12 26 26 26s26-12 26-26v-76h76c14 0 26-12 26-26s-12-26-26-26h-76v-76c0-14-12-26-26-26z" fill="white"/>
  <!-- Horizontal line underneath representing "comparison" -->
  <rect x="128" y="380" width="256" height="24" rx="12" fill="white" opacity="0.8"/>
</svg>
